<?xml version="1.0" encoding="UTF-8" standalone="no"?>
<!-- Created with Inkscape (http://www.inkscape.org/) -->

<svg
   xmlns:dc="http://purl.org/dc/elements/1.1/"
   xmlns:cc="http://creativecommons.org/ns#"
   xmlns:rdf="http://www.w3.org/1999/02/22-rdf-syntax-ns#"
   xmlns:svg="http://www.w3.org/2000/svg"
   xmlns="http://www.w3.org/2000/svg"
   xmlns:sodipodi="http://sodipodi.sourceforge.net/DTD/sodipodi-0.dtd"
   xmlns:inkscape="http://www.inkscape.org/namespaces/inkscape"
   width="744.09448819"
   height="1052.3622047"
   id="svg2"
   version="1.1"
   inkscape:version="0.48.5 r10040"
   sodipodi:docname="blockmm.svg">
  <defs
     id="defs4" />
  <sodipodi:namedview
     id="base"
     pagecolor="#ffffff"
     bordercolor="#666666"
     borderopacity="1.0"
     inkscape:pageopacity="0.0"
     inkscape:pageshadow="2"
     inkscape:zoom="0.48543479"
     inkscape:cx="364.2119"
     inkscape:cy="211.81665"
     inkscape:document-units="px"
     inkscape:current-layer="layer1"
     showgrid="true"
     inkscape:window-width="1400"
     inkscape:window-height="855"
     inkscape:window-x="40"
     inkscape:window-y="0"
     inkscape:window-maximized="1">
    <inkscape:grid
       type="xygrid"
       id="grid2985" />
  </sodipodi:namedview>
  <metadata
     id="metadata7">
    <rdf:RDF>
      <cc:Work
         rdf:about="">
        <dc:format>image/svg+xml</dc:format>
        <dc:type
           rdf:resource="http://purl.org/dc/dcmitype/StillImage" />
        <dc:title></dc:title>
      </cc:Work>
    </rdf:RDF>
  </metadata>
  <g
     inkscape:label="Layer 1"
     inkscape:groupmode="layer"
     id="layer1">
    <path
       style="fill:#ff0000;fill-opacity:1;stroke:#ff0000;stroke-width:2.060009;stroke-linejoin:round;stroke-miterlimit:4;stroke-dasharray:none;stroke-dashoffset:0"
       d="m 892.19219,692.32789 0,-37.59516 37.59516,0 37.59516,0 0,37.59516 0,37.59516 -37.59516,0 -37.59516,0 0,-37.59516 z"
       id="path3290"
       inkscape:connector-curvature="0" />
    <path
       style="fill:#00ff00;fill-opacity:1;stroke:#00ff00;stroke-width:2.06000899999999998;stroke-linejoin:round;stroke-miterlimit:4;stroke-dasharray:none;stroke-dashoffset:0;opacity:0.25"
       d="m 812.88184,612.61274 c 0,-32.7616 0.18546,-37.04113 1.62925,-37.59516 0.89609,-0.34386 17.58216,-0.6252 37.08016,-0.6252 l 35.45092,0 0,37.59516 0,37.59517 -37.08017,0 -37.08016,0 0,-36.96997 z"
       id="path3300"
       inkscape:connector-curvature="0" />
    <path
       style="fill:#0000ff;fill-opacity:1;stroke:#0000ff;stroke-width:2.06000899999999998;stroke-linejoin:round;stroke-miterlimit:4;stroke-dasharray:none;stroke-dashoffset:0;opacity:0.25"
       d="m 892.19219,611.98754 0,-37.59516 37.59516,0 37.59516,0 0,37.59516 0,37.59517 -37.59516,0 -37.59516,0 0,-37.59517 z"
       id="path3306"
       inkscape:connector-curvature="0" />
    <path
       style="fill:#ffff00;fill-opacity:1;stroke:#ffff00;stroke-width:2.06000899999999998;stroke-linejoin:round;stroke-miterlimit:4;stroke-dasharray:none;stroke-dashoffset:0;opacity:0.25"
       d="m 972.53254,611.98754 0,-37.59516 35.60286,0 c 22.5722,0 36.3321,0.39024 37.5952,1.06624 1.9122,1.0234 1.9923,2.53426 1.9923,37.59517 l 0,36.52892 -37.5952,0 -37.59516,0 0,-37.59517 z"
       id="path3312"
       inkscape:connector-curvature="0" />
    <path
       style="fill:#ff00ff;fill-opacity:1;stroke:#ff00ff;stroke-width:2.06000899999999998;stroke-linejoin:round;stroke-miterlimit:4;stroke-dasharray:none;stroke-dashoffset:0;opacity:0.25"
       d="m 812.88184,692.32789 0,-37.59516 37.08016,0 37.08017,0 0,37.59516 0,37.59516 -37.08017,0 -37.08016,0 0,-37.59516 z"
       id="path3318"
       inkscape:connector-curvature="0" />
    <path
       style="fill:#00ffff;fill-opacity:1;stroke:#00ffff;stroke-width:2.06000899999999998;stroke-linejoin:round;stroke-miterlimit:4;stroke-dasharray:none;stroke-dashoffset:0;opacity:0.25"
       d="m 972.53254,692.32789 0,-37.59516 37.59516,0 37.5952,0 0,37.59516 0,37.59516 -37.5952,0 -37.59516,0 0,-37.59516 z"
       id="path3324"
       inkscape:connector-curvature="0" />
    <path
       style="fill:#ff6600;fill-opacity:1;stroke:#ff6600;stroke-width:2.06000899999999998;stroke-linejoin:round;stroke-miterlimit:4;stroke-dasharray:none;stroke-dashoffset:0;opacity:0.25"
       d="m 814.16935,809.58125 c -0.99646,-0.40208 -1.28751,-8.88213 -1.28751,-37.51385 l 0,-36.99432 37.08016,0 37.08017,0 0,37.59516 0,37.59516 -35.79266,-0.0813 c -19.68596,-0.0447 -36.37203,-0.3151 -37.08016,-0.60084 z"
       id="path3330"
       inkscape:connector-curvature="0" />
    <path
       style="fill:#7137c8;fill-opacity:1;stroke:#7137c8;stroke-width:2.06000899999999998;stroke-linejoin:round;stroke-miterlimit:4;stroke-dasharray:none;stroke-dashoffset:0;opacity:0.25"
       d="m 891.63646,810.01368 c -0.27547,-0.71785 -0.37899,-17.98902 -0.23006,-38.38039 l 0.27079,-37.07522 38.11016,0 38.11017,0 0,38.11017 0,38.11016 -37.88011,0.27022 c -29.82611,0.21277 -37.9866,-0.007 -38.38095,-1.03494 l 0,0 z"
       id="path3344"
       inkscape:connector-curvature="0" />
    <path
       style="fill:#ccff00;fill-opacity:1;stroke:#ccff00;stroke-width:2.06000899999999998;stroke-linejoin:round;stroke-miterlimit:4;stroke-dasharray:none;stroke-dashoffset:0;opacity:0.25"
       d="m 972.53254,772.66824 0,-37.59516 37.59516,0 37.5952,0 0,36.52892 c 0,35.0609 -0.08,36.57176 -1.9923,37.59516 -1.2631,0.676 -15.023,1.06624 -37.5952,1.06624 l -35.60286,0 0,-37.59516 z"
       id="path3350"
       inkscape:connector-curvature="0" />
    <path
       style="fill:#ff0000;fill-opacity:1;stroke:#ff0000;stroke-width:2.060009;stroke-linejoin:round;stroke-miterlimit:4;stroke-dasharray:none;stroke-dashoffset:0"
       d="m 572.8908,692.32789 0,-37.59516 37.08016,0 37.08016,0 0,37.59516 0,37.59516 -37.08016,0 -37.08016,0 0,-37.59516 z"
       id="path3294"
       inkscape:connector-curvature="0" />
    <path
       style="fill:#00ff00;fill-opacity:1;stroke:#00ff00;stroke-width:2.06000899999999998;stroke-linejoin:round;stroke-miterlimit:4;stroke-dasharray:none;stroke-dashoffset:0;opacity:0.25"
       d="m 492.55045,613.05379 c 0,-35.06091 0.0801,-36.57177 1.9923,-37.59517 1.26311,-0.676 15.02293,-1.06624 37.59516,-1.06624 l 35.60287,0 0,37.59516 0,37.59517 -37.59516,0 -37.59517,0 0,-36.52892 z"
       id="path3296"
       inkscape:connector-curvature="0" />
    <path
       style="fill:#0000ff;fill-opacity:1;stroke:#0000ff;stroke-width:2.060009;stroke-linejoin:round;stroke-miterlimit:4;stroke-dasharray:none;stroke-dashoffset:0"
       d="m 572.8908,611.98754 0,-37.59516 37.08016,0 37.08016,0 0,37.59516 0,37.59517 -37.08016,0 -37.08016,0 0,-37.59517 z"
       id="path3304"
       inkscape:connector-curvature="0" />
    <path
       style="fill:#ffff00;fill-opacity:1;stroke:#ffff00;stroke-width:2.06000899999999998;stroke-linejoin:round;stroke-miterlimit:4;stroke-dasharray:none;stroke-dashoffset:0;opacity:0.25"
       d="m 652.20115,611.98754 0,-37.59516 35.60286,0 c 22.57224,0 36.33205,0.39024 37.59517,1.06624 1.91223,1.0234 1.99229,2.53426 1.99229,37.59517 l 0,36.52892 -37.59516,0 -37.59516,0 0,-37.59517 z"
       id="path3310"
       inkscape:connector-curvature="0" />
    <path
       style="fill:#ff00ff;fill-opacity:1;stroke:#ff00ff;stroke-width:2.06000899999999998;stroke-linejoin:round;stroke-miterlimit:4;stroke-dasharray:none;stroke-dashoffset:0;opacity:0.25"
       d="m 492.55045,692.32789 0,-37.59516 37.59517,0 37.59516,0 0,37.59516 0,37.59516 -37.59516,0 -37.59517,0 0,-37.59516 z"
       id="path3316"
       inkscape:connector-curvature="0" />
    <path
       style="fill:#00ffff;fill-opacity:1;stroke:#00ffff;stroke-width:2.06000899999999998;stroke-linejoin:round;stroke-miterlimit:4;stroke-dasharray:none;stroke-dashoffset:0;opacity:0.25"
       d="m 652.20115,692.32789 0,-37.59516 37.59516,0 37.59516,0 0,37.59516 0,37.59516 -37.59516,0 -37.59516,0 0,-37.59516 z"
       id="path3322"
       inkscape:connector-curvature="0" />
    <path
       style="fill:#ff6600;fill-opacity:1;stroke:#ff6600;stroke-width:2.06000899999999998;stroke-linejoin:round;stroke-miterlimit:4;stroke-dasharray:none;stroke-dashoffset:0;opacity:0.25"
       d="m 493.78646,809.0274 c -0.91465,-0.91466 -1.23601,-10.68916 -1.23601,-37.59517 l 0,-36.35915 37.59517,0 37.59516,0 0,37.59516 0,37.59516 -36.35916,0 c -26.906,0 -36.68051,-0.32135 -37.59516,-1.236 z"
       id="path3328"
       inkscape:connector-curvature="0" />
    <path
       style="fill:#7137c8;fill-opacity:1;stroke:#7137c8;stroke-width:2.060009;stroke-linejoin:round;stroke-miterlimit:4;stroke-dasharray:none;stroke-dashoffset:0"
       d="m 572.54747,810.60674 c -0.37767,-0.37767 -0.68667,-17.759 -0.68667,-38.62517 l 0,-37.9385 38.11016,0 38.11017,0 0,38.62517 0,38.62517 -37.4235,0 c -20.58292,0 -37.73249,-0.309 -38.11016,-0.68667 z"
       id="path3342"
       inkscape:connector-curvature="0" />
    <path
       style="fill:#ccff00;fill-opacity:1;stroke:#ccff00;stroke-width:2.06000899999999998;stroke-linejoin:round;stroke-miterlimit:4;stroke-dasharray:none;stroke-dashoffset:0;opacity:0.25"
       d="m 652.20115,772.66824 0,-37.59516 37.59516,0 37.59516,0 0,36.35915 c 0,26.90601 -0.32135,36.68051 -1.236,37.59517 -0.91465,0.91465 -10.68916,1.236 -37.59517,1.236 l -36.35915,0 0,-37.59516 z"
       id="path3348"
       inkscape:connector-curvature="0" />
    <path
       style="fill:#ff0000;fill-opacity:1;stroke:#ff0000;stroke-width:2.060009;stroke-linejoin:round;stroke-miterlimit:4;stroke-dasharray:none;stroke-dashoffset:0"
       d="m 252.55941,692.32789 0,-37.59516 37.59517,0 37.59516,0 0,37.59516 0,37.59516 -37.59516,0 -37.59517,0 0,-37.59516 z"
       id="path3292"
       inkscape:connector-curvature="0" />
    <path
       style="fill:#00ff00;fill-opacity:1;stroke:#00ff00;stroke-width:2.06000899999999998;stroke-linejoin:round;stroke-miterlimit:4;stroke-dasharray:none;stroke-dashoffset:0;opacity:0.25"
       d="m 172.21906,613.05379 c 0,-35.06091 0.0801,-36.57177 1.9923,-37.59517 1.26311,-0.676 15.02293,-1.06624 37.59516,-1.06624 l 35.60287,0 0,37.59516 0,37.59517 -37.59516,0 -37.59517,0 0,-36.52892 z"
       id="path3298"
       inkscape:connector-curvature="0" />
    <path
       style="fill:#0000ff;fill-opacity:1;stroke:#0000ff;stroke-width:2.06000899999999998;stroke-linejoin:round;stroke-miterlimit:4;stroke-dasharray:none;stroke-dashoffset:0;opacity:0.25"
       d="m 252.55941,611.98754 0,-37.59516 37.59517,0 37.59516,0 0,37.59516 0,37.59517 -37.59516,0 -37.59517,0 0,-37.59517 z"
       id="path3302"
       inkscape:connector-curvature="0" />
    <path
       style="fill:#ffff00;fill-opacity:1;stroke:#ffff00;stroke-width:2.06000899999999998;stroke-linejoin:round;stroke-miterlimit:4;stroke-dasharray:none;stroke-dashoffset:0;opacity:0.25"
       d="m 332.89976,611.98754 0,-37.59516 35.45091,0 c 19.49801,0 36.18408,0.28134 37.08017,0.6252 1.44378,0.55403 1.62924,4.83356 1.62924,37.59516 l 0,36.96997 -37.08016,0 -37.08016,0 0,-37.59517 z"
       id="path3308"
       inkscape:connector-curvature="0" />
    <path
       style="fill:#ff00ff;fill-opacity:1;stroke:#ff00ff;stroke-width:2.06000899999999998;stroke-linejoin:round;stroke-miterlimit:4;stroke-dasharray:none;stroke-dashoffset:0"
       d="m 172.21906,692.32789 0,-37.59516 37.59517,0 37.59516,0 0,37.59516 0,37.59516 -37.59516,0 -37.59517,0 0,-37.59516 z"
       id="path3314"
       inkscape:connector-curvature="0" />
    <path
       style="fill:#00ffff;fill-opacity:1;stroke:#00ffff;stroke-width:2.06000899999999998;stroke-linejoin:round;stroke-miterlimit:4;stroke-dasharray:none;stroke-dashoffset:0"
       d="m 332.89976,692.32789 0,-37.59516 37.08016,0 37.08016,0 0,37.59516 0,37.59516 -37.08016,0 -37.08016,0 0,-37.59516 z"
       id="path3320"
       inkscape:connector-curvature="0" />
    <path
       style="fill:#ff6600;fill-opacity:1;stroke:#ff6600;stroke-width:2.06000899999999998;stroke-linejoin:round;stroke-miterlimit:4;stroke-dasharray:none;stroke-dashoffset:0;opacity:0.25"
       d="m 174.02157,809.1509 c -1.66303,-0.96863 -1.80251,-3.87525 -1.80251,-37.56385 l 0,-36.51397 37.59517,0 37.59516,0 0,37.59516 0,37.59516 -35.79266,-0.0313 c -22.38899,-0.0196 -36.46765,-0.42447 -37.59516,-1.08118 z"
       id="path3326"
       inkscape:connector-curvature="0" />
    <path
       style="fill:#7137c8;fill-opacity:1;stroke:#7137c8;stroke-width:2.06000899999999998;stroke-linejoin:round;stroke-miterlimit:4;stroke-dasharray:none;stroke-dashoffset:0;opacity:0.25"
       d="m 252.00368,810.01368 c -0.27546,-0.71785 -0.37899,-17.98902 -0.23005,-38.38039 l 0.27078,-37.07522 38.11017,0 38.11016,0 0,38.11017 0,38.11016 -37.88011,0.27022 c -29.8261,0.21277 -37.9866,-0.007 -38.38095,-1.03494 l 0,0 z"
       id="path3340"
       inkscape:connector-curvature="0" />
    <path
       style="fill:#ccff00;fill-opacity:1;stroke:#ccff00;stroke-width:2.06000899999999998;stroke-linejoin:round;stroke-miterlimit:4;stroke-dasharray:none;stroke-dashoffset:0;opacity:0.25"
       d="m 332.89976,772.66824 0,-37.59516 37.08016,0 37.08016,0 0,36.96996 c 0,32.7616 -0.18546,37.04113 -1.62924,37.59516 -0.89609,0.34386 -17.58216,0.6252 -37.08017,0.6252 l -35.45091,0 0,-37.59516 z"
       id="path3346"
       inkscape:connector-curvature="0" />
    <text
       xml:space="preserve"
       style="font-size:28px;font-style:normal;font-weight:normal;line-height:125%;letter-spacing:0px;word-spacing:0px;fill:#000000;fill-opacity:1;stroke:none;font-family:Sans"
       x="142.75134"
       y="364.82513"
       id="text4098"
       sodipodi:linespacing="125%"><tspan
         sodipodi:role="line"
         id="tspan4100"
         x="142.75134"
         y="364.82513" /></text>
    <rect
       inkscape:export-ydpi="300"
       inkscape:export-xdpi="300"
       inkscape:export-filename="/Users/till/uni/ws14/dima/mastersthesis/thesis/gilbert/images/rowMM.png"
       transform="scale(1,-1)"
       ry="5"
       y="-812.36218"
       x="170"
       height="240"
       width="240"
       id="rect3221"
       style="fill:none;stroke:#666666;stroke-width:4;stroke-linejoin:round;stroke-miterlimit:4;stroke-dasharray:none;stroke-dashoffset:0" />
    <path
       sodipodi:nodetypes="cc"
       inkscape:connector-curvature="0"
       id="path3223"
       d="m 170,652.36218 240,0"
       style="fill:#cccccc;stroke:#999999;stroke-width:4;stroke-linecap:butt;stroke-linejoin:miter;stroke-miterlimit:4;stroke-opacity:1;stroke-dasharray:none" />
    <path
       sodipodi:nodetypes="cc"
       inkscape:connector-curvature="0"
       id="path3225"
       d="m 170,732.36218 240,0"
       style="fill:#999999;stroke:#999999;stroke-width:4;stroke-linecap:butt;stroke-linejoin:miter;stroke-miterlimit:4;stroke-opacity:1;stroke-dasharray:none" />
    <path
       inkscape:connector-curvature="0"
       id="path3227"
       d="m 250,812.36218 0,-240"
       style="fill:#cccccc;stroke:#999999;stroke-width:4;stroke-linecap:butt;stroke-linejoin:miter;stroke-miterlimit:4;stroke-opacity:1;stroke-dasharray:none" />
    <path
       style="fill:#cccccc;stroke:#999999;stroke-width:4;stroke-linecap:butt;stroke-linejoin:miter;stroke-miterlimit:4;stroke-opacity:1;stroke-dasharray:none"
       d="m 330,812.36218 0,-240"
       id="path3229"
       inkscape:connector-curvature="0" />
    <rect
       style="fill:none;stroke:#666666;stroke-width:4;stroke-linejoin:round;stroke-miterlimit:4;stroke-dasharray:none;stroke-dashoffset:0"
       id="rect3231"
       width="240"
       height="240"
       x="490"
       y="-812.36218"
       ry="5"
       transform="scale(1,-1)"
       inkscape:export-filename="/Users/till/uni/ws14/dima/mastersthesis/thesis/gilbert/images/rowMM.png"
       inkscape:export-xdpi="300"
       inkscape:export-ydpi="300" />
    <path
       style="fill:#cccccc;stroke:#999999;stroke-width:4;stroke-linecap:butt;stroke-linejoin:miter;stroke-miterlimit:4;stroke-opacity:1;stroke-dasharray:none"
       d="m 490,652.36218 240,0"
       id="path3233"
       inkscape:connector-curvature="0"
       sodipodi:nodetypes="cc" />
    <path
       style="fill:#999999;stroke:#999999;stroke-width:4;stroke-linecap:butt;stroke-linejoin:miter;stroke-miterlimit:4;stroke-opacity:1;stroke-dasharray:none"
       d="m 490,732.36218 240,0"
       id="path3235"
       inkscape:connector-curvature="0"
       sodipodi:nodetypes="cc" />
    <path
       style="fill:#cccccc;stroke:#999999;stroke-width:4;stroke-linecap:butt;stroke-linejoin:miter;stroke-miterlimit:4;stroke-opacity:1;stroke-dasharray:none"
       d="m 570,812.36218 0,-240"
       id="path3237"
       inkscape:connector-curvature="0" />
    <path
       inkscape:connector-curvature="0"
       id="path3239"
       d="m 650,812.36218 0,-240"
       style="fill:#cccccc;stroke:#999999;stroke-width:4;stroke-linecap:butt;stroke-linejoin:miter;stroke-miterlimit:4;stroke-opacity:1;stroke-dasharray:none" />
    <rect
       inkscape:export-ydpi="300"
       inkscape:export-xdpi="300"
       inkscape:export-filename="/Users/till/uni/ws14/dima/mastersthesis/thesis/gilbert/images/rowMM.png"
       transform="scale(1,-1)"
       ry="5"
       y="-812.36218"
       x="810"
       height="240"
       width="240"
       id="rect3241"
       style="fill:none;stroke:#666666;stroke-width:4;stroke-linejoin:round;stroke-miterlimit:4;stroke-dasharray:none;stroke-dashoffset:0" />
    <path
       sodipodi:nodetypes="cc"
       inkscape:connector-curvature="0"
       id="path3243"
       d="m 810,652.36218 240,0"
       style="fill:#cccccc;stroke:#999999;stroke-width:4;stroke-linecap:butt;stroke-linejoin:miter;stroke-miterlimit:4;stroke-opacity:1;stroke-dasharray:none" />
    <path
       sodipodi:nodetypes="cc"
       inkscape:connector-curvature="0"
       id="path3245"
       d="m 810,732.36218 240,0"
       style="fill:#999999;stroke:#999999;stroke-width:4;stroke-linecap:butt;stroke-linejoin:miter;stroke-miterlimit:4;stroke-opacity:1;stroke-dasharray:none" />
    <path
       inkscape:connector-curvature="0"
       id="path3247"
       d="m 890,812.36218 0,-240"
       style="fill:#cccccc;stroke:#999999;stroke-width:4;stroke-linecap:butt;stroke-linejoin:miter;stroke-miterlimit:4;stroke-opacity:1;stroke-dasharray:none" />
    <path
       style="fill:#cccccc;stroke:#999999;stroke-width:4;stroke-linecap:butt;stroke-linejoin:miter;stroke-miterlimit:4;stroke-opacity:1;stroke-dasharray:none"
       d="m 970,812.36218 0,-240"
       id="path3249"
       inkscape:connector-curvature="0" />
    <text
       inkscape:export-ydpi="300"
       inkscape:export-xdpi="300"
       inkscape:export-filename="/Users/till/uni/ws14/dima/mastersthesis/thesis/gilbert/images/rowMM.png"
       sodipodi:linespacing="125%"
       id="text3251"
       y="702.36218"
       x="440"
       style="font-size:50px;font-style:normal;font-weight:normal;line-height:125%;letter-spacing:0px;word-spacing:0px;fill:#000000;fill-opacity:1;stroke:none;font-family:Sans"
       xml:space="preserve"><tspan
         y="702.36218"
         x="440"
         id="tspan3253"
         sodipodi:role="line">x</tspan></text>
    <text
       inkscape:export-ydpi="300"
       inkscape:export-xdpi="300"
       inkscape:export-filename="/Users/till/uni/ws14/dima/mastersthesis/thesis/gilbert/images/rowMM.png"
       sodipodi:linespacing="125%"
       id="text3255"
       y="712.36218"
       x="750"
       style="font-size:50px;font-style:normal;font-weight:normal;line-height:125%;letter-spacing:0px;word-spacing:0px;fill:#000000;fill-opacity:1;stroke:none;font-family:Sans"
       xml:space="preserve"><tspan
         y="712.36218"
         x="750"
         id="tspan3257"
         sodipodi:role="line">=</tspan></text>
    <text
       inkscape:export-ydpi="300"
       inkscape:export-xdpi="300"
       inkscape:export-filename="/Users/till/uni/ws14/dima/mastersthesis/thesis/gilbert/images/rowMM.png"
       sodipodi:linespacing="125%"
       id="text3259"
       y="872.36218"
       x="280"
       style="font-size:50px;font-style:normal;font-weight:normal;line-height:125%;letter-spacing:0px;word-spacing:0px;fill:#000000;fill-opacity:1;stroke:none;font-family:Sans"
       xml:space="preserve"><tspan
         y="872.36218"
         x="280"
         id="tspan3261"
         sodipodi:role="line">A</tspan></text>
    <text
       inkscape:export-ydpi="300"
       inkscape:export-xdpi="300"
       inkscape:export-filename="/Users/till/uni/ws14/dima/mastersthesis/thesis/gilbert/images/rowMM.png"
       sodipodi:linespacing="125%"
       id="text3263"
       y="872.36218"
       x="600"
       style="font-size:50px;font-style:normal;font-weight:normal;line-height:125%;letter-spacing:0px;word-spacing:0px;fill:#000000;fill-opacity:1;stroke:none;font-family:Sans"
       xml:space="preserve"><tspan
         y="872.36218"
         x="600"
         id="tspan3265"
         sodipodi:role="line">B</tspan></text>
    <text
       inkscape:export-ydpi="300"
       inkscape:export-xdpi="300"
       inkscape:export-filename="/Users/till/uni/ws14/dima/mastersthesis/thesis/gilbert/images/rowMM.png"
       sodipodi:linespacing="125%"
       id="text3267"
       y="872.36218"
       x="920"
       style="font-size:28px;font-style:normal;font-weight:normal;line-height:125%;letter-spacing:0px;word-spacing:0px;fill:#000000;fill-opacity:1;stroke:none;font-family:Sans"
       xml:space="preserve"><tspan
         style="font-size:50px"
         y="872.36218"
         x="920"
         id="tspan3269"
         sodipodi:role="line">C</tspan></text>
  </g>
</svg>
